<svg id="Layer_1" data-name="Layer 1" xmlns="http://www.w3.org/2000/svg" viewBox="0 0 100 100"><defs><style>.cls-1{fill:#fff;}.cls-2{fill:#8d9092;}.cls-3{fill:#e6e7e8;}.cls-4{fill:#e10600;}</style></defs><title>Video</title><path class="cls-1" d="M78.71,29.81a4,4,0,0,0-4-4H25.29a4,4,0,0,0-4,4v7.4H78.71Z"/><path class="cls-2" d="M78.71,38.19H21.29a1,1,0,0,1-1-1V29.81a5,5,0,0,1,5-5H74.7a5,5,0,0,1,5,5v7.38A1,1,0,0,1,78.71,38.19Zm-56.42-2H77.71V29.81h0a3,3,0,0,0-.87-2.12,3,3,0,0,0-2.12-.88H25.28a3,3,0,0,0-3,3Z"/><path class="cls-3" d="M21.29,37.19V70.56a3.69,3.69,0,0,0,4,3.63H74.7a3.69,3.69,0,0,0,4-3.63V37.19Z"/><path class="cls-2" d="M74.7,75.19H25.29a4.67,4.67,0,0,1-5-4.63V37.19a1,1,0,0,1,1-1H78.71a1,1,0,0,1,1,1V70.56A4.68,4.68,0,0,1,74.7,75.19Zm-52.41-37V70.56a2.71,2.71,0,0,0,3,2.63H74.7a2.72,2.72,0,0,0,3-2.63V38.19Z"/><path class="cls-2" d="M72,33.19H49a1,1,0,0,1,0-2H72a1,1,0,1,1,0,2Z"/><path class="cls-2" d="M27,33.19h0a1,1,0,1,1,1-1A1,1,0,0,1,27,33.19Z"/><path class="cls-2" d="M31,33.19a1,1,0,1,1,0-2h0a1,1,0,0,1,0,2Z"/><path class="cls-2" d="M35,33.19a1,1,0,0,1-.2-2,1,1,0,1,1,.41,2h0Z"/><rect class="cls-1" x="27.5" y="42.06" width="45" height="27.27"/><path class="cls-2" d="M72.5,70.45h-45a1.13,1.13,0,0,1-1.12-1.13V42.06a1.12,1.12,0,0,1,1.12-1.13h45a1.12,1.12,0,0,1,1.12,1.13V69.32A1.13,1.13,0,0,1,72.5,70.45ZM28.62,68.2H71.38v-25H28.62Z"/><path class="cls-4" d="M46.48,63.7a1.06,1.06,0,0,1-.52-.13,1.09,1.09,0,0,1-.57-1V48.77a1.09,1.09,0,0,1,.57-1,1.08,1.08,0,0,1,1.11,0l10.68,6.92a1.1,1.1,0,0,1,.5.92,1.11,1.11,0,0,1-.5.92L47.07,63.53A1.12,1.12,0,0,1,46.48,63.7Zm1.09-12.93V60.6l7.58-4.91Z"/></svg>