<svg width="62" height="59" viewBox="0 0 62 59" fill="none" xmlns="http://www.w3.org/2000/svg">
<path d="M47.5 39.4999L53.831 35.6999C54.8148 35.1105 55.9893 34.927 57.106 35.1883C58.2227 35.4496 59.1939 36.1351 59.814 37.0999C60.4102 38.0286 60.6368 39.147 60.4491 40.2345C60.2614 41.322 59.673 42.2998 58.8 42.9749L47.5 51.7289C46.8431 52.2372 46.0878 52.6036 45.282 52.8049L25.027 57.8679C24.2295 58.0672 23.3996 58.1006 22.5887 57.9659C21.7778 57.8312 21.0032 57.5313 20.313 57.0849L5.5 47.4999H0.5V31.4999L10.458 29.8399C11.7809 29.6195 13.1396 29.8487 14.317 30.4909L23.5 35.4999L38.411 36.2849C39.5148 36.3428 40.5542 36.822 41.315 37.6237C42.0758 38.4255 42.5 39.4886 42.5 40.5939C42.5014 41.6651 42.1043 42.6985 41.3861 43.4932C40.6679 44.2879 39.6798 44.7872 38.614 44.8939L22.5 46.4999" stroke="#191970" stroke-miterlimit="10" stroke-linecap="square"/>
<path d="M42.5 1.5L29.5 11.5V27.5H38.5V18.5H46.5V27.5H55.5V11.5L42.5 1.5Z" stroke="#8675B6" stroke-miterlimit="10" stroke-linecap="square"/>
</svg>
