<svg id="Layer_1" data-name="Layer 1" xmlns="http://www.w3.org/2000/svg" viewBox="0 0 100 100"><defs><style>.cls-1{fill:#8d9092;}.cls-2{fill:#e6e7e8;}.cls-3{fill:#fff;}.cls-4{fill:#e13c30;}</style></defs><title>Customised Mail Alerts</title><path class="cls-1" d="M41.24,33.37,50,25.13l8.75,8.24a1,1,0,0,0,1.37-1.45L50.65,23a1,1,0,0,0-1.37,0l-9.41,8.88a1,1,0,0,0,0,1.42,1,1,0,0,0,1.41,0Z"/><path class="cls-2" d="M67.05,40l5.8,5.5a3.26,3.26,0,0,1,1,2.37V73a3.23,3.23,0,0,1-3.22,3.24H29.36A3.23,3.23,0,0,1,26.14,73V47.82a3.25,3.25,0,0,1,1-2.36L33,39.94"/><path class="cls-1" d="M66.36,40.69l5.8,5.5h0a2.28,2.28,0,0,1,.7,1.65V73a2.23,2.23,0,0,1-2.22,2.24H29.36A2.23,2.23,0,0,1,27.14,73V47.8l-.86,0h.86v0l-.86,0h.86a2.26,2.26,0,0,1,.7-1.64l5.8-5.51a1,1,0,0,0-1.38-1.45l-5.8,5.52a4.21,4.21,0,0,0-1.32,3.08v0l1,0h-1V73a4.23,4.23,0,0,0,4.22,4.24H70.64A4.23,4.23,0,0,0,74.86,73V47.83a4.23,4.23,0,0,0-1.32-3.09h0l-5.8-5.5a1,1,0,1,0-1.38,1.46Z"/><polygon class="cls-3" points="32.95 52.81 32.95 32.64 67.04 32.64 67.04 52.81 54.56 61.45 49.99 58.61 45.14 61.25 32.95 52.81"/><path class="cls-1" d="M31.22,72.45,48.71,60.23a2.19,2.19,0,0,1,1.26-.4,2.24,2.24,0,0,1,1.26.4L68.78,72.45a1,1,0,1,0,1.14-1.64L52.37,58.59a4.19,4.19,0,0,0-4.81,0L30.07,70.81a1,1,0,0,0,1.15,1.64Z"/><polyline class="cls-3" points="32.95 52.81 32.95 32.64 67.04 32.64 67.04 52.81"/><path class="cls-4" d="M34,52.82V33.64H66V52.82a1,1,0,1,0,2,0V32.64a1,1,0,0,0-1-1H33a1,1,0,0,0-1,1V52.82a1,1,0,1,0,2,0Z"/><path class="cls-1" d="M59.71,59.82l10.22-8a1,1,0,0,0-1.23-1.57l-10.22,8a1,1,0,0,0,1.23,1.57Zm-29.65-8,10.17,8a1,1,0,0,0,1.4-.16,1,1,0,0,0-.16-1.41l-10.17-8a1,1,0,0,0-1.24,1.57Z"/><path class="cls-3" d="M54.88,47.51l2-.26a7.59,7.59,0,0,0,0-2l-2-.26a5.52,5.52,0,0,0-.64-1.55l1.22-1.58A7.45,7.45,0,0,0,54,40.41l-1.58,1.22A5.52,5.52,0,0,0,50.9,41l-.26-2a6.84,6.84,0,0,0-2,0l-.26,2a5.13,5.13,0,0,0-1.55.64l-1.58-1.22a7.45,7.45,0,0,0-1.43,1.43L45,43.42A5.59,5.59,0,0,0,44.37,45l-2,.26a7.59,7.59,0,0,0,0,2l2,.26A5.47,5.47,0,0,0,45,49.06L43.8,50.64a7.45,7.45,0,0,0,1.43,1.43l1.58-1.22a5.72,5.72,0,0,0,1.55.65l.26,2a6.84,6.84,0,0,0,2,0l.26-2a5.43,5.43,0,0,0,1.55-.65L54,52.07a7.45,7.45,0,0,0,1.43-1.43l-1.22-1.58a5.4,5.4,0,0,0,.64-1.55Z"/><path class="cls-4" d="M54.88,47.51l.08.59,2-.26a.57.57,0,0,0,.51-.51,7.47,7.47,0,0,0,0-2.18.58.58,0,0,0-.51-.51l-2-.26-.08.59.59-.14a5.92,5.92,0,0,0-.72-1.72l-.51.31.48.37,1.21-1.58a.59.59,0,0,0,0-.73,7.75,7.75,0,0,0-1.54-1.54.59.59,0,0,0-.73,0l-1.58,1.22.37.47.31-.51A5.92,5.92,0,0,0,51,40.4L50.9,41l.59-.08-.26-2a.59.59,0,0,0-.51-.52,8,8,0,0,0-1.09-.07,7.88,7.88,0,0,0-1.09.07.59.59,0,0,0-.51.52l-.26,2,.59.08-.14-.59a5.92,5.92,0,0,0-1.72.72l.31.51.37-.48-1.59-1.21a.6.6,0,0,0-.73,0,8.07,8.07,0,0,0-1.54,1.55.6.6,0,0,0,0,.72l1.22,1.59.48-.37-.52-.31a6.06,6.06,0,0,0-.71,1.72l.58.14-.08-.59-2,.26a.59.59,0,0,0-.52.51,8.52,8.52,0,0,0,0,2.18.59.59,0,0,0,.52.51l2,.26.08-.59-.58.14a6,6,0,0,0,.71,1.72l.52-.31-.48-.36-1.22,1.58a.62.62,0,0,0,0,.73,8.32,8.32,0,0,0,1.54,1.54.62.62,0,0,0,.73,0l1.59-1.22-.37-.48-.31.52a6,6,0,0,0,1.72.71l.14-.58-.59.07.26,2a.59.59,0,0,0,.51.52,8.52,8.52,0,0,0,2.18,0,.59.59,0,0,0,.51-.52l.26-2-.59-.07.14.58a5.92,5.92,0,0,0,1.72-.72l-.31-.51-.37.48,1.58,1.21a.6.6,0,0,0,.73,0A7.54,7.54,0,0,0,55.93,51a.59.59,0,0,0,0-.73l-1.21-1.58-.48.37.51.31a5.92,5.92,0,0,0,.72-1.72l-.59-.14h-.6a.6.6,0,0,0,.21.45.55.55,0,0,0,.47.14l-.08-.59h.6a.6.6,0,0,0-1.18-.14,5,5,0,0,1-.57,1.38.59.59,0,0,0,0,.67L55,51l.48-.37L55,50.28a7.07,7.07,0,0,1-1.31,1.31l.36.48.37-.48-1.59-1.21a.59.59,0,0,0-.68,0,4.85,4.85,0,0,1-1.37.57.62.62,0,0,0-.46.51l-.26,2,.6.07-.08-.59a7.5,7.5,0,0,1-.93.06,7.38,7.38,0,0,1-.93-.06l-.08.59.6-.07-.26-2a.61.61,0,0,0-.46-.51,4.91,4.91,0,0,1-1.38-.57.59.59,0,0,0-.67,0l-1.59,1.21.37.48.36-.48a7.06,7.06,0,0,1-1.31-1.31l-.48.36.48.37,1.21-1.58a.6.6,0,0,0,0-.68A4.52,4.52,0,0,1,45,47.37a.62.62,0,0,0-.51-.46l-2-.26-.08.6.6-.08a7.24,7.24,0,0,1,0-1.86l-.6-.08.08.6,2-.26a.6.6,0,0,0,.51-.45,4.85,4.85,0,0,1,.57-1.39.59.59,0,0,0,0-.67l-1.21-1.59-.48.37.48.36a6.77,6.77,0,0,1,1.31-1.31l-.36-.48-.37.48,1.59,1.21a.57.57,0,0,0,.67,0,5,5,0,0,1,1.38-.57.61.61,0,0,0,.46-.51l.26-2-.6-.08.08.59a7.26,7.26,0,0,1,.93-.06,7,7,0,0,1,.92.06l.09-.59-.6.08.26,2a.61.61,0,0,0,.46.5,4.85,4.85,0,0,1,1.37.57.6.6,0,0,0,.68,0l1.59-1.22L54,40.41l-.36.48A7.38,7.38,0,0,1,55,42.2l.48-.36L55,41.48l-1.22,1.58a.6.6,0,0,0,0,.68,4.85,4.85,0,0,1,.57,1.37.61.61,0,0,0,.5.46l2,.26.08-.6-.59.09a7.08,7.08,0,0,1,0,1.84l.59.09-.08-.6-2,.26.08.6h0Z"/><path class="cls-2" d="M52.33,46.24a2.71,2.71,0,1,1-2.7-2.7A2.7,2.7,0,0,1,52.33,46.24Z"/><path class="cls-4" d="M52.33,46.24h-.6a2.11,2.11,0,1,1-2.1-2.1,2.11,2.11,0,0,1,2.1,2.1h1.2a3.31,3.31,0,1,0-3.3,3.31,3.3,3.3,0,0,0,3.3-3.31Z"/></svg>