<svg id="Layer_1" data-name="Layer 1" xmlns="http://www.w3.org/2000/svg" viewBox="0 0 100 100"><defs><style>.cls-1{fill:#fff;}.cls-2{fill:#8d9092;}.cls-3{fill:#e6e7e8;}.cls-4{fill:#e13c30;}</style></defs><title>Online Shopping</title><path class="cls-1" d="M78.71,29.81a4,4,0,0,0-4-4H25.29a4,4,0,0,0-4,4v7.4H78.71Z"/><path class="cls-2" d="M78.71,29.81h1a5,5,0,0,0-5-5H25.29v1l.07-1h-.08a5,5,0,0,0-5,5h0v7.4a1,1,0,0,0,1,1H78.71a1,1,0,0,0,1-1V29.81h-2v6.38H22.29v-6.4a3,3,0,0,1,3-3V26l-.05.84h.05V26l-.05.84H74.72a3,3,0,0,1,3,3Z"/><path class="cls-3" d="M21.29,37.19V70.56a3.69,3.69,0,0,0,4,3.63H74.7a3.69,3.69,0,0,0,4-3.63V37.19Z"/><path class="cls-2" d="M21.29,37.19h-1V70.56a4.43,4.43,0,0,0,1.49,3.38,5.27,5.27,0,0,0,3.51,1.25H74.7a5.29,5.29,0,0,0,3.52-1.25,4.43,4.43,0,0,0,1.49-3.38V37.19a1,1,0,0,0-1-1H21.29a1,1,0,0,0-1,1h1v1H77.71V70.56a2.43,2.43,0,0,1-.81,1.88,3.31,3.31,0,0,1-2.2.75H25.29a3.28,3.28,0,0,1-2.19-.75,2.43,2.43,0,0,1-.81-1.88V37.19h-1v0Z"/><path class="cls-2" d="M72,31.19H49a1,1,0,0,0,0,2H72a1,1,0,1,0,0-2"/><path class="cls-2" d="M27,31.19h0a1,1,0,0,0,0,2h0a1,1,0,1,0,0-2"/><path class="cls-2" d="M31,33.19h0a1,1,0,0,0,0-2h0a1,1,0,0,0,0,2"/><path class="cls-2" d="M34.72,31.23h0a1,1,0,0,0,.58,1.92h0A1,1,0,0,0,36,31.9a1,1,0,0,0-1.25-.67"/><path class="cls-1" d="M61.24,50.61,50.93,42.46a1.54,1.54,0,0,0-1.74,0L38.64,50.59a1.6,1.6,0,0,0-.7,1.33V65.7a1.48,1.48,0,0,0,1.47,1.49h6a1.58,1.58,0,0,0,1.57-1.59V59.66a1.57,1.57,0,0,1,1.56-1.58h2.87a1.57,1.57,0,0,1,1.57,1.58h0V65.6a1.58,1.58,0,0,0,1.56,1.59h5.84a1.61,1.61,0,0,0,1.6-1.61V51.94A1.61,1.61,0,0,0,61.24,50.61Z"/><path class="cls-4" d="M61.24,50.61l.62-.79L51.55,41.67l0,0a2.62,2.62,0,0,0-1.44-.44,2.56,2.56,0,0,0-1.43.44l-.05,0L38,49.8l.61.79-.57-.83a2.62,2.62,0,0,0-1.13,2.16V65.7a2.47,2.47,0,0,0,2.47,2.49h6a2.59,2.59,0,0,0,2.57-2.59V59.66a.57.57,0,0,1,.56-.58h2.87a.57.57,0,0,1,.57.58h0V65.6a2.58,2.58,0,0,0,2.56,2.59h5.84a2.62,2.62,0,0,0,2.6-2.61V51.94a2.62,2.62,0,0,0-1.14-2.16l-.56.83.62-.79-.62.79-.57.82a.62.62,0,0,1,.27.51V65.58a.6.6,0,0,1-.18.43.62.62,0,0,1-.42.18H54.5a.57.57,0,0,1-.56-.59V59.66h0a2.58,2.58,0,0,0-2.56-2.58H48.5a2.57,2.57,0,0,0-2.56,2.58V65.6a.57.57,0,0,1-.57.59h-6a.48.48,0,0,1-.47-.49V51.92a.63.63,0,0,1,.26-.51l0,0L49.8,43.25l-.61-.79.56.82a.58.58,0,0,1,.62,0l.56-.82-.62.78,10.31,8.15.05,0Z"/><path class="cls-2" d="M68.38,53.75l3,3-3.09,3.09a1,1,0,0,0,0,1.41,1,1,0,0,0,1.42,0l3.79-3.79a1,1,0,0,0,.29-.71,1,1,0,0,0-.29-.71l-3.75-3.75a1,1,0,0,0-1.41,0,1,1,0,0,0,0,1.42Z"/><path class="cls-2" d="M31.5,59.88l-3-3.05,3.08-3.08a1,1,0,0,0,0-1.42,1,1,0,0,0-1.41,0l-3.8,3.8a1,1,0,0,0-.29.7,1,1,0,0,0,.29.71l3.75,3.75a1,1,0,0,0,1.42,0,1,1,0,0,0,0-1.41Z"/></svg>