<svg id="Layer_1" data-name="Layer 1" xmlns="http://www.w3.org/2000/svg" viewBox="22.31890296936035 26.336612701416016 55.42108917236328 47.393375396728516"><defs><style>.cls-1{fill:#e6e7e8;}.cls-2{fill:#8d9092;}.cls-3{fill:#fff;}.cls-4{fill:#e13c30;}</style></defs><title>Conversation</title><path class="cls-1" d="M74.34,64.46a14.9,14.9,0,0,0-2.52-17.71,14.69,14.69,0,0,0-6.09-3.69l-.07.11c.17,2.57.33,16.28-14.78,24.44l-.13.21a14.9,14.9,0,0,0,17.71,2.52l8.23,2.35Z"></path><path class="cls-2" d="M50,68.53A15.91,15.91,0,0,0,69,71.21l-.49-.87-.27,1,8.22,2.35a1,1,0,0,0,1.24-1.24L75.3,64.19l-1,.27.87.49A15.91,15.91,0,0,0,66,42.1a1,1,0,0,0-.6,1.91,13.91,13.91,0,0,1,8,20,1,1,0,0,0-.08.76l1.85,6.49-6.49-1.85a1,1,0,0,0-.76.08,13.91,13.91,0,0,1-16.52-2.34,1,1,0,0,0-1.42,0,1,1,0,0,0,0,1.41Z"></path><path class="cls-3" d="M55.63,59a18.57,18.57,0,1,0-29.39-4.18L23.31,65.06l10.25-2.92A18.57,18.57,0,0,0,55.63,59Z"></path><path class="cls-4" d="M55.63,59l.7.71a19.56,19.56,0,1,0-31-4.41l.88-.48-1-.28L22.35,64.79A1,1,0,0,0,23.59,66L33.83,63.1l-.27-1-.49.87a19.58,19.58,0,0,0,23.26-3.3l-.7-.71-.71-.7a17.59,17.59,0,0,1-20.88,3,1,1,0,0,0-.76-.08l-8.51,2.43,2.43-8.52a1,1,0,0,0-.08-.75,17.55,17.55,0,1,1,27.8,4Z"></path><path class="cls-4" d="M32.63,41.75h21a1,1,0,0,0,0-2h-21a1,1,0,0,0,0,2"></path><path class="cls-4" d="M32.63,48.25h15a1,1,0,0,0,0-2h-15a1,1,0,0,0,0,2"></path><path class="cls-4" d="M32.63,54.75h7a1,1,0,0,0,0-2h-7a1,1,0,0,0,0,2"></path></svg>