<svg id="Layer_1" data-name="Layer 1" xmlns="http://www.w3.org/2000/svg" viewBox="23.05997657775879 22.19548797607422 53.92003631591797 55.49951934814453"><defs><style>.cls-1{fill:#e6e7e8;}.cls-2{fill:#8d9092;}.cls-3{fill:#fff;}.cls-4{fill:#e13c30;}</style></defs><title>Customer Service</title><path class="cls-1" d="M68,64h3.57a4.46,4.46,0,0,0,4.41-4.51V48.72a4.46,4.46,0,0,0-4.41-4.5H68a.29.29,0,0,0-.28.29V63.7A.29.29,0,0,0,68,64Z"/><path class="cls-2" d="M68,64v1h3.57a5.4,5.4,0,0,0,3.84-1.62,5.58,5.58,0,0,0,1.57-3.89V48.72a5.56,5.56,0,0,0-1.57-3.88,5.4,5.4,0,0,0-3.84-1.62H68a1.3,1.3,0,0,0-1.28,1.29V63.7A1.3,1.3,0,0,0,68,65V63.7h.72A.71.71,0,0,0,68,63v.71h.72V44.51H68v.71a.71.71,0,0,0,.72-.71H68v.71h3.57a3.39,3.39,0,0,1,2.41,1,3.52,3.52,0,0,1,1,2.48V59.48a3.55,3.55,0,0,1-1,2.49,3.39,3.39,0,0,1-2.41,1H68Z"/><path class="cls-3" d="M65.19,42h0a2.49,2.49,0,0,1,2.49,2.49V63.53a2.49,2.49,0,0,1-5,0V44.47A2.5,2.5,0,0,1,65.19,42Z"/><path class="cls-2" d="M65.19,42v1a1.49,1.49,0,0,1,1.49,1.49V63.53a1.49,1.49,0,0,1-3,0V44.47A1.49,1.49,0,0,1,65.19,43V41a3.49,3.49,0,0,0-3.49,3.49V63.53a3.49,3.49,0,0,0,7,0V44.47A3.49,3.49,0,0,0,65.19,41Z"/><path class="cls-2" d="M64.19,66v7.5H57.37a1,1,0,1,0,0,2h7.82a1,1,0,0,0,1-1V66a1,1,0,1,0-2,0Z"/><path class="cls-3" d="M55.2,76.69H51.37a2.17,2.17,0,1,1,0-4.33H55.2a2.17,2.17,0,1,1,0,4.33Z"/><path class="cls-4" d="M55.2,76.69v-1H51.37a1.17,1.17,0,1,1,0-2.33H55.2a1.17,1.17,0,1,1,0,2.33v2a3.17,3.17,0,1,0,0-6.33H51.37a3.17,3.17,0,1,0,0,6.33H55.2Z"/><path class="cls-2" d="M30.1,44a19.91,19.91,0,0,1,39.82.19,1,1,0,0,0,2,0A21.91,21.91,0,0,0,28.1,44a1,1,0,0,0,2,0Z"/><path class="cls-1" d="M32,44H28.47a4.45,4.45,0,0,0-4.41,4.5V59.28a4.45,4.45,0,0,0,4.41,4.5H32a.29.29,0,0,0,.28-.28V44.3A.29.29,0,0,0,32,44Z"/><path class="cls-2" d="M32,44V43H28.47a5.36,5.36,0,0,0-3.84,1.62,5.54,5.54,0,0,0-1.57,3.88V59.28a5.54,5.54,0,0,0,1.57,3.88,5.36,5.36,0,0,0,3.84,1.62H32a1.29,1.29,0,0,0,1.28-1.28V44.3A1.29,1.29,0,0,0,32,43V44.3h-.72A.72.72,0,0,0,32,45V44.3h-.72V63.5H32v-.72a.72.72,0,0,0-.72.72H32v-.72H28.47a3.35,3.35,0,0,1-2.41-1,3.51,3.51,0,0,1-1-2.48V48.52a3.51,3.51,0,0,1,1-2.48,3.35,3.35,0,0,1,2.41-1H32Z"/><path class="cls-3" d="M34.81,66h0a2.48,2.48,0,0,1-2.49-2.49V44.47a2.49,2.49,0,1,1,5,0V63.53A2.49,2.49,0,0,1,34.81,66Z"/><path class="cls-2" d="M34.81,66V65a1.49,1.49,0,0,1-1.49-1.49V44.47a1.49,1.49,0,1,1,3,0V63.53A1.49,1.49,0,0,1,34.81,65v2a3.49,3.49,0,0,0,3.49-3.49V44.47a3.49,3.49,0,1,0-7,0V63.53A3.49,3.49,0,0,0,34.81,67Z"/></svg>