<svg id="Layer_1" data-name="Layer 1" xmlns="http://www.w3.org/2000/svg" viewBox="11.619999885559082 34.41999816894531 72.37999725341797 31.160003662109375"><defs><style>.cls-1{fill:#e13c30;}.cls-2{fill:#e6e7e8;}.cls-3{fill:#8d9092;}</style></defs><title>Fast Service</title><path class="cls-1" d="M35.29,58.92H12.62a1,1,0,0,0,0,2H35.29a1,1,0,1,0,0-2"></path><path class="cls-1" d="M35.29,52.17H21.75a1,1,0,0,0,0,2H35.29a1,1,0,1,0,0-2"></path><path class="cls-1" d="M35.29,45.43H28.52a1,1,0,0,0,0,2h6.77a1,1,0,0,0,0-2"></path><path class="cls-2" d="M35.29,46.43v14.9a3.23,3.23,0,0,0,3.22,3.25H79.8A3.23,3.23,0,0,0,83,61.33V38.67a3.23,3.23,0,0,0-3.22-3.25H38.51a3.23,3.23,0,0,0-3.22,3.25V53.56"></path><path class="cls-3" d="M34.29,46.43v14.9a4.24,4.24,0,0,0,4.22,4.25H79.8A4.25,4.25,0,0,0,84,61.33V46.44a1,1,0,1,0-2,0v7.13a1,1,0,0,0,.29.71,1,1,0,0,0,.71.29,1,1,0,0,0,1-1V38.67a4.25,4.25,0,0,0-4.22-4.25H38.51a4.23,4.23,0,0,0-4.22,4.25V53.56a1,1,0,0,0,2,0V38.67a2.23,2.23,0,0,1,2.22-2.25H79.8A2.23,2.23,0,0,1,82,38.67v14.9a1,1,0,0,0,.29.71,1,1,0,0,0,.71.29,1,1,0,0,0,1-1V46.44a1,1,0,0,0-1-1,1,1,0,0,0-.71.29,1,1,0,0,0-.29.71V61.33a2.23,2.23,0,0,1-2.22,2.25H38.51a2.23,2.23,0,0,1-2.22-2.25V46.43a1,1,0,0,0-2,0Z"></path><path class="cls-3" d="M77.93,39.21,60.45,51.43a2.18,2.18,0,0,1-2.52,0h0L40.37,39.21a1,1,0,1,0-1.14,1.64L56.78,53.07h0a4.19,4.19,0,0,0,2.41.76,4.14,4.14,0,0,0,2.4-.76L79.08,40.85a1,1,0,1,0-1.15-1.64Z"></path><path class="cls-3" d="M49.44,51.84l-10.22,8a1,1,0,1,0,1.23,1.57l10.23-8a1,1,0,1,0-1.24-1.58Zm29.65,8-10.16-8a1,1,0,0,0-1.41.17,1,1,0,0,0,.17,1.4l10.16,8a1,1,0,1,0,1.24-1.57Z"></path><path class="cls-1" d="M25.38,45.43H24a1,1,0,0,0,0,2h1.42a1,1,0,1,0,0-2"></path></svg>