<svg width="30" height="27" viewBox="0 0 30 27" fill="none" xmlns="http://www.w3.org/2000/svg">
<path d="M23.6719 6.67188H26.9531C27.5747 6.67188 28.1709 6.91881 28.6104 7.35834C29.0499 7.79788 29.2969 8.39402 29.2969 9.01562V18.3906C29.2969 18.6984 29.2363 19.0032 29.1185 19.2875C29.0007 19.5719 28.828 19.8303 28.6104 20.0479C28.3928 20.2655 28.1344 20.4382 27.85 20.556C27.5657 20.6738 27.2609 20.7344 26.9531 20.7344H25.5469V25.4219L18.9844 20.7344H13.3594" stroke="#E92300" stroke-miterlimit="10" stroke-linecap="square"/>
<path d="M21.3281 0.578125H3.51562C2.89402 0.578125 2.29788 0.825055 1.85834 1.26459C1.41881 1.70413 1.17188 2.30027 1.17188 2.92188V13.7031C1.17188 14.3247 1.41881 14.9209 1.85834 15.3604C2.29788 15.7999 2.89402 16.0469 3.51562 16.0469H5.85938V22.6094L13.3594 16.0469H21.3281C21.9497 16.0469 22.5459 15.7999 22.9854 15.3604C23.4249 14.9209 23.6719 14.3247 23.6719 13.7031V2.92188C23.6719 2.30027 23.4249 1.70413 22.9854 1.26459C22.5459 0.825055 21.9497 0.578125 21.3281 0.578125Z" stroke="#4D5057" stroke-miterlimit="10" stroke-linecap="square"/>
</svg>
