<svg width="97" height="29" viewBox="0 0 97 29" fill="none" xmlns="http://www.w3.org/2000/svg">
<path d="M0 8.07214V21.5088L11.1035 14.7451L0 8.07214Z" fill="white"/>
<path d="M11.6044 29V15.661L0.505371 22.42L11.6044 29Z" fill="white"/>
<path d="M12.6172 15.6564V28.9931L23.714 22.3247L12.6172 15.6564Z" fill="white"/>
<path d="M12.0136 14.0688L23.714 7.03325L12.0136 0L0.404785 7.03325L12.0136 14.0688Z" fill="white"/>
<path d="M93.9233 12.6394C93.9233 12.3527 94.0329 12.0778 94.2279 11.8751C94.4228 11.6725 94.6873 11.5586 94.963 11.5586C95.2388 11.5586 95.5032 11.6725 95.6982 11.8751C95.8932 12.0778 96.0027 12.3527 96.0027 12.6394C96.0027 12.926 95.8932 13.2009 95.6982 13.4036C95.5032 13.6063 95.2388 13.7202 94.963 13.7202C94.6873 13.7202 94.4228 13.6063 94.2279 13.4036C94.0329 13.2009 93.9233 12.926 93.9233 12.6394ZM95.8842 12.6394C95.8842 12.3854 95.7872 12.1418 95.6144 11.9623C95.4417 11.7827 95.2074 11.6818 94.963 11.6818C94.7187 11.6818 94.4844 11.7827 94.3117 11.9623C94.1389 12.1418 94.0418 12.3854 94.0418 12.6394C94.0404 12.7658 94.0631 12.8912 94.1088 13.0084C94.1546 13.1255 94.2223 13.232 94.3081 13.3216C94.3938 13.4112 94.4959 13.4821 94.6084 13.5302C94.7209 13.5783 94.8414 13.6026 94.963 13.6016C95.0849 13.6013 95.2054 13.576 95.3178 13.527C95.4302 13.4781 95.5321 13.4065 95.6177 13.3164C95.7034 13.2263 95.771 13.1195 95.8167 13.0021C95.8625 12.8847 95.8854 12.7591 95.8842 12.6324V12.6394ZM94.5561 12.0676H95.0346C95.2582 12.0676 95.4415 12.1861 95.4415 12.4163C95.444 12.493 95.4209 12.5683 95.3761 12.6293C95.3312 12.6903 95.2674 12.7333 95.1956 12.7509L95.4773 13.167H95.2313L94.9809 12.7881H94.7573V13.167H94.5539L94.5561 12.0676ZM95.0167 12.6138C95.1531 12.6138 95.2403 12.5394 95.2403 12.4348C95.2403 12.3303 95.162 12.2536 95.0167 12.2536H94.7596V12.6138H95.0167Z" fill="white"/>
<path d="M34.8353 11.4587C34.5522 11.0601 34.1638 10.7557 33.7174 10.5824C33.2911 10.4025 32.8359 10.3079 32.3758 10.3035C31.8533 10.297 31.3353 10.4047 30.8554 10.6196C30.4094 10.8233 30.0084 11.12 29.6771 11.4912C29.3435 11.8659 29.085 12.3061 28.9169 12.7858C28.7408 13.3067 28.656 13.8562 28.6665 14.4082C28.6591 14.9781 28.7469 15.5451 28.9258 16.084C29.0842 16.5656 29.3344 17.0091 29.6615 17.3879C29.9813 17.7528 30.3734 18.0414 30.8107 18.2339C31.2872 18.4401 31.7994 18.5421 32.3155 18.5337C32.8475 18.5449 33.3743 18.4229 33.8515 18.1781C34.2771 17.9613 34.6472 17.6427 34.9315 17.2484L36.4675 18.371C35.9991 18.986 35.4008 19.4806 34.7191 19.8167C33.9606 20.1739 33.1346 20.3495 32.3021 20.3304C31.5089 20.3402 30.7212 20.1927 29.9812 19.8958C29.3004 19.6262 28.6812 19.2121 28.163 18.6798C27.6448 18.1476 27.2391 17.5089 26.9717 16.8045C26.6808 16.0422 26.5365 15.2281 26.5468 14.4082C26.5344 13.576 26.6866 12.7501 26.994 11.9816C27.2741 11.2857 27.6915 10.6585 28.2193 10.1408C28.7547 9.62995 29.3825 9.2349 30.0662 8.97866C30.807 8.69964 31.5901 8.56109 32.3781 8.56958C32.7403 8.57048 33.1016 8.60471 33.458 8.67185C33.8277 8.73714 34.1898 8.84311 34.5379 8.98795C34.8796 9.12764 35.2057 9.30532 35.5106 9.51789C35.8099 9.7213 36.0725 9.97776 36.2864 10.2756L34.8353 11.4587Z" fill="white"/>
<path d="M36.8587 16.2119C36.8518 15.6529 36.9577 15.0987 37.1695 14.5849C37.3651 14.1071 37.6528 13.676 38.0147 13.3182C38.3795 12.9641 38.8091 12.6898 39.278 12.5116C40.2792 12.1306 41.3779 12.1306 42.3792 12.5116C42.8496 12.6892 43.2807 12.9635 43.6469 13.3182C44.0065 13.674 44.2932 14.1017 44.4898 14.5756C44.7017 15.0894 44.8075 15.6436 44.8006 16.2026C44.8079 16.7668 44.702 17.3265 44.4898 17.8459C44.2946 18.3281 44.008 18.7644 43.6469 19.1289C43.2815 19.4885 42.8525 19.7711 42.3836 19.9609C41.3856 20.3606 40.2804 20.3606 39.2824 19.9609C38.8135 19.7711 38.3845 19.4885 38.0191 19.1289C37.6579 18.7686 37.3704 18.3361 37.174 17.8575C36.96 17.3377 36.8526 16.7772 36.8587 16.2119ZM38.7145 16.2119C38.7149 16.5114 38.7586 16.8091 38.8442 17.0951C38.9247 17.3813 39.0559 17.6493 39.231 17.8854C39.4077 18.1217 39.6311 18.3159 39.8861 18.4548C40.1802 18.6017 40.5023 18.678 40.8286 18.678C41.1548 18.678 41.4769 18.6017 41.771 18.4548C42.0252 18.3156 42.2478 18.1215 42.4239 17.8854C42.5997 17.6494 42.7316 17.3814 42.8129 17.0951C42.8974 16.8089 42.9411 16.5113 42.9426 16.2119C42.9413 15.914 42.8976 15.6179 42.8129 15.3333C42.7301 15.0498 42.5983 14.7844 42.4239 14.55C42.2483 14.3159 42.0254 14.1247 41.771 13.9899C41.4753 13.8491 41.1538 13.7762 40.8286 13.7762C40.5033 13.7762 40.1818 13.8491 39.8861 13.9899C39.631 14.1246 39.4074 14.3158 39.231 14.55C39.0573 14.7845 38.9262 15.0499 38.8442 15.3333C38.7583 15.6176 38.7146 15.9139 38.7145 16.2119Z" fill="white"/>
<path d="M45.8003 12.4488H47.551V13.7132H47.5801C47.7713 13.285 48.0646 12.9146 48.4319 12.6371C48.8045 12.3602 49.2531 12.2159 49.7109 12.2257C49.7802 12.2257 49.8562 12.2257 49.9345 12.2257C50.0104 12.228 50.0856 12.2413 50.1581 12.2652V14.0154C50.0551 13.9878 49.9505 13.9668 49.845 13.9526C49.4141 13.9032 48.9786 13.9839 48.5907 14.185C48.3548 14.3265 48.1523 14.5211 47.9982 14.7545C47.862 14.9524 47.762 15.1745 47.703 15.4099C47.6586 15.5917 47.6331 15.778 47.627 15.9654V20.0283H45.8003V12.4488Z" fill="white"/>
<path d="M57.7713 16.3396V16.593C57.7712 16.6776 57.7667 16.7622 57.7578 16.8463H52.2061C52.2235 17.1087 52.2936 17.3645 52.4118 17.597C52.5271 17.8217 52.6845 18.02 52.8746 18.1804C53.0708 18.3467 53.2922 18.4779 53.5298 18.5686C53.7728 18.6634 54.0304 18.7115 54.29 18.7104C54.69 18.7238 55.0871 18.6344 55.4459 18.45C55.7567 18.2786 56.023 18.0313 56.2218 17.7295L57.4381 18.7429C56.7181 19.7547 55.6747 20.2607 54.3079 20.2607C53.7744 20.2662 53.2444 20.1726 52.7427 19.9841C52.2839 19.811 51.8629 19.5447 51.504 19.2008C51.1469 18.8536 50.8662 18.4302 50.6812 17.9596C50.4771 17.4293 50.3768 16.8619 50.3861 16.2908C50.3789 15.7206 50.4792 15.1545 50.6812 14.6243C50.8667 14.1448 51.1436 13.7091 51.4951 13.3436C51.8459 12.9862 52.2627 12.7063 52.7204 12.5208C53.2068 12.3228 53.7251 12.2234 54.2475 12.228C54.728 12.2232 55.205 12.3123 55.6539 12.4906C56.0768 12.6599 56.4586 12.9242 56.7718 13.2646C57.1011 13.6323 57.3525 14.0678 57.5097 14.5429C57.6967 15.1215 57.7853 15.7295 57.7713 16.3396ZM55.9445 15.4843C55.9451 15.2481 55.912 15.0131 55.8462 14.787C55.7829 14.5716 55.6762 14.3727 55.5331 14.2036C55.3852 14.0283 55.2009 13.89 54.9943 13.7992C54.7506 13.6945 54.4887 13.6439 54.2251 13.6504C53.7162 13.6358 53.2203 13.8189 52.8344 14.1641C52.6483 14.3278 52.4964 14.5294 52.3879 14.7565C52.2795 14.9835 52.2169 15.2312 52.2039 15.4843H55.9445Z" fill="white"/>
<path d="M59.0747 8.84387H60.9909V18.2665H65.5678V20.0376H59.0747V8.84387Z" fill="white"/>
<path d="M65.8831 16.2119C65.8762 15.6529 65.9821 15.0987 66.1939 14.5849C66.3895 14.1071 66.6772 13.676 67.0391 13.3182C67.4039 12.9641 67.8335 12.6898 68.3024 12.5116C69.3036 12.1306 70.4023 12.1306 71.4036 12.5116C71.8724 12.6898 72.302 12.9641 72.6668 13.3182C73.0264 13.674 73.3131 14.1017 73.5098 14.5756C73.7223 15.0893 73.8289 15.6435 73.8228 16.2026C73.8293 16.767 73.7227 17.3266 73.5098 17.8459C73.3133 18.3239 73.0267 18.7562 72.6668 19.1172C72.3015 19.4769 71.8725 19.7595 71.4036 19.9493C70.4056 20.349 69.3003 20.349 68.3024 19.9493C67.8335 19.7595 67.4045 19.4769 67.0391 19.1172C66.6779 18.7569 66.3904 18.3245 66.1939 17.8459C65.9829 17.3293 65.8771 16.773 65.8831 16.2119ZM67.7389 16.2119C67.7393 16.5114 67.783 16.8091 67.8686 17.0951C67.9491 17.3813 68.0803 17.6493 68.2554 17.8854C68.4327 18.122 68.6569 18.3162 68.9128 18.4548C69.2068 18.6017 69.5289 18.678 69.8552 18.678C70.1815 18.678 70.5036 18.6017 70.7976 18.4548C71.0519 18.3156 71.2745 18.1215 71.4505 17.8854C71.6263 17.6494 71.7583 17.3814 71.8396 17.0951C71.9241 16.8089 71.9678 16.5113 71.9692 16.2119C71.9679 15.914 71.9242 15.6179 71.8396 15.3333C71.7568 15.0498 71.6249 14.7844 71.4505 14.55C71.2749 14.3159 71.0521 14.1247 70.7976 13.9899C70.5019 13.8491 70.1805 13.7762 69.8552 13.7762C69.5299 13.7762 69.2085 13.8491 68.9128 13.9899C68.6577 14.1246 68.434 14.3158 68.2577 14.55C68.0839 14.7845 67.9528 15.0499 67.8708 15.3333C67.7842 15.6175 67.7397 15.9138 67.7389 16.2119Z" fill="white"/>
<path d="M82.5673 12.4487V19.3611C82.5752 19.9899 82.4938 20.6165 82.3258 21.2206C82.1796 21.7429 81.922 22.2243 81.5723 22.6291C81.2149 23.0247 80.7751 23.33 80.2867 23.5216C79.6977 23.7455 79.0735 23.8527 78.4466 23.8377C78.1335 23.8365 77.821 23.81 77.5119 23.7587C77.1818 23.7068 76.856 23.6291 76.5371 23.5262C76.2205 23.4221 75.913 23.2899 75.6181 23.1311C75.3368 22.9817 75.0715 22.8017 74.8266 22.5942L75.8775 21.1229C76.2248 21.4668 76.6324 21.7383 77.0782 21.9225C77.508 22.1034 77.9672 22.1972 78.4309 22.1991C78.8075 22.2101 79.1824 22.1421 79.5332 21.9992C79.8124 21.8831 80.0586 21.6952 80.2487 21.453C80.4306 21.2093 80.5602 20.9279 80.6288 20.6279C80.7076 20.2846 80.7459 19.9326 80.7428 19.5796V19.0125H80.7138C80.4527 19.3836 80.1038 19.6783 79.7009 19.8678C79.2685 20.0687 78.7993 20.1694 78.3258 20.163C77.8126 20.1707 77.3038 20.0629 76.8345 19.8469C76.4041 19.6468 76.0181 19.3564 75.7009 18.9939C75.3869 18.6252 75.1419 18.1987 74.9787 17.7365C74.8069 17.2482 74.7213 16.7317 74.726 16.2117C74.7223 15.6838 74.8071 15.1592 74.9764 14.6615C75.1326 14.1952 75.3757 13.7655 75.6919 13.3971C76.0043 13.0354 76.3848 12.7442 76.8099 12.5417C77.2796 12.3245 77.7894 12.2166 78.3035 12.2256C78.8029 12.2219 79.2966 12.3355 79.7478 12.558C80.194 12.7813 80.5649 13.1393 80.8121 13.5853H80.8434V12.4487H82.5673ZM78.6746 13.7829C78.3668 13.7761 78.0613 13.8404 77.7803 13.9711C77.532 14.0914 77.3111 14.2649 77.1318 14.4802C76.9478 14.7046 76.808 14.9644 76.7204 15.2449C76.6223 15.5489 76.5732 15.8678 76.5751 16.1885C76.5748 16.4894 76.624 16.7881 76.7204 17.0717C76.8131 17.3499 76.9524 17.6088 77.1318 17.8364C77.3104 18.0633 77.5328 18.2486 77.7847 18.3803C78.0566 18.5189 78.3561 18.589 78.659 18.5848C78.9586 18.5905 79.2559 18.5286 79.5303 18.4034C79.8047 18.2782 80.0498 18.0927 80.2487 17.8597C80.4392 17.6361 80.5865 17.3765 80.6825 17.095C80.7838 16.8044 80.8353 16.4976 80.8345 16.1885C80.8355 15.8718 80.784 15.5573 80.6825 15.2588C80.5876 14.9726 80.4403 14.7082 80.2487 14.4802C80.0621 14.2603 79.8337 14.083 79.5779 13.9595C79.2928 13.8329 78.9845 13.7726 78.6746 13.7829Z" fill="white"/>
<path d="M83.3789 9.87123C83.3783 9.72224 83.4069 9.5747 83.463 9.43761C83.5192 9.30053 83.6016 9.1768 83.7054 9.074C83.8137 8.9609 83.9432 8.87219 84.0859 8.81341C84.2286 8.75463 84.3814 8.72703 84.5349 8.73233C84.8457 8.72393 85.1476 8.84049 85.3778 9.05773C85.4856 9.16152 85.5717 9.28736 85.6305 9.42735C85.6893 9.56734 85.7197 9.71846 85.7197 9.87123C85.7197 10.024 85.6893 10.1751 85.6305 10.3151C85.5717 10.4551 85.4856 10.5809 85.3778 10.6847C85.1476 10.902 84.8457 11.0185 84.5349 11.0101C84.3816 11.0157 84.2289 10.9885 84.0862 10.9301C83.9435 10.8717 83.8138 10.7835 83.7054 10.6708C83.6016 10.5675 83.5191 10.4434 83.463 10.3059C83.4068 10.1685 83.3782 10.0206 83.3789 9.87123ZM83.6383 12.4488H85.4583V20.0376H83.6338L83.6383 12.4488Z" fill="white"/>
<path d="M91.911 14.6128C91.7445 14.3832 91.5244 14.2016 91.2716 14.0852C91.0021 13.9453 90.7052 13.8721 90.404 13.8713C90.0977 13.8638 89.7945 13.9374 89.5231 14.0852C89.2755 14.221 89.0602 14.4123 88.8926 14.6453C88.723 14.8805 88.5965 15.146 88.5192 15.4286C88.4392 15.7133 88.3985 16.0083 88.3984 16.3048C88.3988 16.6027 88.4418 16.8987 88.5259 17.1834C88.6091 17.466 88.7409 17.7306 88.9149 17.9644C89.0883 18.1986 89.3088 18.3906 89.5611 18.5269C89.8381 18.6726 90.1451 18.746 90.4555 18.7407C90.7474 18.7389 91.0365 18.6797 91.3073 18.5664C91.5735 18.4614 91.8091 18.2869 91.9915 18.0597L93.1318 19.2613C92.8072 19.6128 92.4084 19.881 91.9669 20.0446C91.4781 20.2319 90.9607 20.3256 90.4398 20.3212C89.9189 20.3238 89.4014 20.2326 88.9104 20.0516C88.44 19.8809 88.0091 19.61 87.6453 19.2562C87.2814 18.9024 86.9927 18.4735 86.7975 17.9969C86.5814 17.4616 86.4748 16.8853 86.4845 16.3048C86.4769 15.7351 86.5835 15.1699 86.7975 14.6453C86.993 14.1687 87.2798 13.7385 87.6405 13.3809C87.9997 13.0307 88.4212 12.7567 88.8814 12.5744C89.8735 12.1865 90.9692 12.1981 91.9535 12.6069C92.4153 12.7869 92.8254 13.0861 93.1452 13.4762L91.911 14.6128Z" fill="white"/>
</svg>
