<svg id="Layer_1" data-name="Layer 1" xmlns="http://www.w3.org/2000/svg" viewBox="0 0 100 100"><defs><style>.cls-1{fill:#e6e7e8;}.cls-2{fill:#8d9092;}.cls-3{fill:#fff;}.cls-4{fill:#e13c30;}</style></defs><title>Bank Institution</title><polygon class="cls-1" points="50 26.28 26 41.85 26 46 50 46 74 46 74 41.85 50 26.28"/><path class="cls-2" d="M50,26.28l-.54-.84L25.46,41a1,1,0,0,0-.46.84V46a1,1,0,0,0,1,1H74a1,1,0,0,0,1-1V41.85a1,1,0,0,0-.46-.84l-24-15.57a1,1,0,0,0-1.08,0l.54.84-.54.84L73,42.4V45H27V42.4L50.54,27.12,50,26.28l-.54.84Z"/><polygon class="cls-1" points="33.34 46 29.67 46 30.89 49 33.34 49 35.78 49 37 46 33.34 46"/><path class="cls-2" d="M33.34,46V45H29.67a1,1,0,0,0-.83.44,1,1,0,0,0-.09.94l1.22,3a1,1,0,0,0,.92.62h4.89a1,1,0,0,0,.93-.62l1.22-3a1,1,0,0,0-.1-.94A1,1,0,0,0,37,45H33.34v2h2.18l-.41,1H31.57l-.41-1h2.18Z"/><polygon class="cls-1" points="33.34 74 37 74 35.78 71 33.34 71 30.89 71 29.67 74 33.34 74"/><path class="cls-2" d="M33.34,74v1H37a1,1,0,0,0,.83-.44,1,1,0,0,0,.1-.94l-1.22-3a1,1,0,0,0-.93-.62H30.89a1,1,0,0,0-.92.62l-1.22,3a1,1,0,0,0,.09.94,1,1,0,0,0,.83.44h3.67V73H31.16l.41-1h3.54l.41,1H33.34Z"/><rect class="cls-1" x="30.89" y="48.54" width="4.83" height="22.73"/><path class="cls-2" d="M35.72,71.27v-1H31.89V49.54h2.83V71.27h1v0h1V48.54a1,1,0,0,0-1-1H30.89a1,1,0,0,0-1,1V71.27a1,1,0,0,0,.3.71,1,1,0,0,0,.7.29h4.83a1,1,0,0,0,1-1Z"/><polygon class="cls-1" points="45 46 41.34 46 42.56 49 45 49 47.45 49 48.67 46 45 46"/><path class="cls-2" d="M45,46V45H41.34a1,1,0,0,0-.83.44,1,1,0,0,0-.1.94l1.22,3a1,1,0,0,0,.93.62h4.89a1,1,0,0,0,.92-.62l1.23-3a1,1,0,0,0-.1-.94,1,1,0,0,0-.83-.44H45v2h2.18l-.4,1H43.23l-.4-1H45Z"/><polygon class="cls-1" points="45 74 48.67 74 47.45 71 45 71 42.56 71 41.34 74 45 74"/><path class="cls-2" d="M45,74v1h3.67a1,1,0,0,0,.83-.44,1,1,0,0,0,.1-.94l-1.23-3a1,1,0,0,0-.92-.62H42.56a1,1,0,0,0-.93.62l-1.22,3a1,1,0,0,0,.1.94,1,1,0,0,0,.83.44H45V73H42.83l.4-1h3.55l.4,1H45Z"/><rect class="cls-1" x="42.56" y="48.54" width="4.83" height="22.73"/><path class="cls-2" d="M47.39,71.27v-1H43.56V49.54h2.83V71.27h1v0h1V48.54a1,1,0,0,0-1-1H42.56a1,1,0,0,0-1,1V71.27a1,1,0,0,0,1,1h4.83a1,1,0,0,0,.7-.29,1,1,0,0,0,.3-.71Z"/><polygon class="cls-1" points="56.67 46 53.01 46 54.23 49 56.67 49 59.12 49 60.34 46 56.67 46"/><path class="cls-2" d="M56.67,46V45H53a1,1,0,0,0-.82.44,1,1,0,0,0-.1.94l1.22,3a1,1,0,0,0,.93.62h4.89a1,1,0,0,0,.92-.62l1.22-3a1,1,0,0,0-.09-.94,1,1,0,0,0-.83-.44H56.67v2h2.18l-.41,1H54.9l-.41-1h2.18Z"/><polygon class="cls-1" points="56.67 74 60.34 74 59.12 71 56.67 71 54.23 71 53.01 74 56.67 74"/><path class="cls-2" d="M56.67,74v1h3.67a1,1,0,0,0,.83-.44,1,1,0,0,0,.09-.94l-1.22-3a1,1,0,0,0-.92-.62H54.23a1,1,0,0,0-.93.62l-1.22,3a1,1,0,0,0,.1.94A1,1,0,0,0,53,75h3.67V73H54.49l.41-1h3.54l.41,1H56.67Z"/><rect class="cls-1" x="54.23" y="48.54" width="4.83" height="22.73"/><path class="cls-2" d="M59.05,71.27v-1H55.23V49.54h2.82V71.27h1v0h1V48.54a1,1,0,0,0-.29-.7,1,1,0,0,0-.71-.3H54.23a1,1,0,0,0-.71.3,1,1,0,0,0-.29.7V71.27a1,1,0,0,0,.29.71,1,1,0,0,0,.71.29h4.82a1,1,0,0,0,1-1Z"/><polygon class="cls-1" points="68.34 46 64.67 46 65.89 49 68.34 49 70.78 49 72 46 68.34 46"/><path class="cls-2" d="M68.34,46V45H64.67a1,1,0,0,0-.83.44,1,1,0,0,0-.09.94l1.22,3a1,1,0,0,0,.92.62h4.89a1,1,0,0,0,.93-.62l1.22-3a1,1,0,0,0-.1-.94A1,1,0,0,0,72,45H68.34v2h2.18l-.41,1H66.57l-.41-1h2.18Z"/><polygon class="cls-1" points="68.34 74 72 74 70.78 71 68.34 71 65.89 71 64.67 74 68.34 74"/><path class="cls-2" d="M68.34,74v1H72a1,1,0,0,0,.83-.44,1,1,0,0,0,.1-.94l-1.22-3a1,1,0,0,0-.93-.62H65.89a1,1,0,0,0-.92.62l-1.22,3a1,1,0,0,0,.09.94,1,1,0,0,0,.83.44h3.67V73H66.16l.41-1h3.54l.41,1H68.34Z"/><rect class="cls-1" x="65.89" y="48.54" width="4.83" height="22.73"/><path class="cls-2" d="M70.72,71.27v-1H66.89V49.54h2.83V71.27h1v0h1V48.54a1,1,0,0,0-1-1H65.89a1,1,0,0,0-1,1V71.27a1,1,0,0,0,.3.71,1,1,0,0,0,.7.29h4.83a1,1,0,0,0,1-1Z"/><circle class="cls-3" cx="50" cy="34.78" r="3.92"/><path class="cls-4" d="M53.92,34.78h-1A2.92,2.92,0,1,1,50,31.86a2.91,2.91,0,0,1,2.92,2.92h2A4.92,4.92,0,1,0,50,39.69a4.92,4.92,0,0,0,4.92-4.91Z"/><path class="cls-2" d="M74,40.85H26a1,1,0,1,0,0,2H74a1,1,0,0,0,0-2"/><rect class="cls-1" x="26.4" y="74" width="47.21" height="3.16"/><path class="cls-2" d="M73.6,77.16v-1H27.4V75H72.6v2.16h1v0h1V74a1,1,0,0,0-1-1H26.4a1,1,0,0,0-1,1v3.16a1,1,0,0,0,.29.7,1,1,0,0,0,.71.3H73.6a1,1,0,0,0,.71-.3,1,1,0,0,0,.29-.7Z"/></svg>