<svg id="Layer_1" data-name="Layer 1" xmlns="http://www.w3.org/2000/svg" viewBox="0 0 100 100"><defs><style>.cls-1{fill:#e6e7e8;}.cls-2{fill:#8d9092;}.cls-3{fill:#fff;}.cls-4{fill:#e13c30;}</style></defs><title>Modern Architecture</title><polygon class="cls-1" points="46.18 47.48 26.16 54.19 26.16 80.48 46.18 80.48 46.18 47.48"/><path class="cls-2" d="M46.18,47.48l-.32-.94-20,6.7a1,1,0,0,0-.68.95V80.48a1,1,0,0,0,.29.71,1,1,0,0,0,.71.29h20a1,1,0,0,0,1-1v-33a1,1,0,0,0-.41-.81,1,1,0,0,0-.91-.13l.32.94h-1v32h-18V54.91L46.5,48.43l-.32-1h0Z"/><polygon class="cls-3" points="44.15 29.36 76.71 43.57 76.71 33.73 44.15 19.52 44.15 29.36"/><path class="cls-2" d="M44.15,29.37l-.4.91L76.31,44.49a1,1,0,0,0,1-.08,1,1,0,0,0,.45-.84V33.72a1,1,0,0,0-.6-.91L44.55,18.6a1,1,0,0,0-.95.08,1,1,0,0,0-.45.84v9.85a1,1,0,0,0,.6.91l.4-.91h1V21L75.71,34.38V42L44.55,28.45l-.4.92h0Z"/><rect class="cls-3" x="32.22" y="56.95" width="3.95" height="7.83"/><path class="cls-4" d="M36.17,64.79v-1h-3V58h2v6.84h1v0h1V57a1,1,0,0,0-1-1h-4a1,1,0,0,0-.71.3,1,1,0,0,0-.29.7v7.84a1,1,0,0,0,.29.7,1,1,0,0,0,.71.3h4a1,1,0,0,0,.71-.3,1,1,0,0,0,.29-.7Z"/><rect class="cls-3" x="42.28" y="56.95" width="3.95" height="7.83"/><path class="cls-4" d="M46.23,64.79v-1H43.28V58h1.95v6.84h1v0h1V57a1,1,0,0,0-.29-.7,1,1,0,0,0-.71-.3H42.28a1,1,0,0,0-1,1v7.84a1,1,0,0,0,.29.7,1,1,0,0,0,.71.3h3.95a1,1,0,0,0,.71-.3,1,1,0,0,0,.29-.7Z"/><polygon class="cls-1" points="74.68 42.67 46.18 30.23 46.18 80.48 74.68 80.48 74.68 42.67"/><path class="cls-2" d="M74.68,42.67l.4-.92L46.58,29.32a1,1,0,0,0-.95.08,1,1,0,0,0-.45.83V80.48a1,1,0,0,0,.29.71,1,1,0,0,0,.71.29h28.5a1,1,0,0,0,1-1V42.67a1,1,0,0,0-.6-.92l-.4.92h-1V79.48H47.18V31.76l27.1,11.83.4-.92h0Z"/><rect class="cls-3" x="53.24" y="44" width="3.95" height="7.83"/><path class="cls-4" d="M57.2,51.83v-1h-3V45h2v6.83h1v0h1V44a1,1,0,0,0-1-1h-4a1,1,0,0,0-1,1v7.83a1,1,0,0,0,.3.71,1,1,0,0,0,.7.29h4a1,1,0,0,0,.7-.29,1,1,0,0,0,.3-.71Z"/><rect class="cls-3" x="63.67" y="44" width="3.95" height="7.83"/><path class="cls-4" d="M67.62,51.83v-1h-3V45h2v6.83h1v0h1V44a1,1,0,0,0-1-1h-4a1,1,0,0,0-.71.29,1,1,0,0,0-.29.71v7.83a1,1,0,0,0,1,1h4a1,1,0,0,0,1-1Z"/><rect class="cls-3" x="53.24" y="55.16" width="3.95" height="7.83"/><path class="cls-4" d="M57.2,63V62h-3V56.16h2V63h1v0h1V55.16a1,1,0,0,0-1-1h-4a1,1,0,0,0-1,1V63a1,1,0,0,0,.3.7,1,1,0,0,0,.7.3h4a1,1,0,0,0,.7-.3,1,1,0,0,0,.3-.7Z"/><rect class="cls-3" x="63.67" y="55.16" width="3.95" height="7.83"/><path class="cls-4" d="M67.62,63V62h-3V56.16h2V63h1v0h1V55.16a1,1,0,0,0-1-1h-4a1,1,0,0,0-.71.3,1,1,0,0,0-.29.7V63a1,1,0,0,0,.29.7,1,1,0,0,0,.71.3h4a1,1,0,0,0,.71-.3,1,1,0,0,0,.29-.7Z"/><polygon class="cls-3" points="23.29 55.16 49.05 46.53 49.05 40.09 23.29 48.72 23.29 55.16"/><path class="cls-2" d="M23.29,55.16l.32,1,25.76-8.63a1,1,0,0,0,.68-.95V40.08a1,1,0,0,0-1.31-.94L23,47.77a1,1,0,0,0-.68.95v6.44a1,1,0,0,0,.41.82,1,1,0,0,0,.91.13l-.32-1h1V49.44l23.76-8v4.34L23,54.22l.32.94h0Z"/><rect class="cls-3" x="56.51" y="67.58" width="7.84" height="12.9"/><path class="cls-2" d="M64.35,67.58v-1H56.51a1,1,0,0,0-1,1v12.9a1,1,0,0,0,.3.71,1,1,0,0,0,.7.29h7.84a1,1,0,0,0,1-1V67.58a1,1,0,0,0-1-1v1h-1v11.9H57.51V68.58h6.84v-1h0Z"/></svg>