<svg id="Layer_1" data-name="Layer 1" xmlns="http://www.w3.org/2000/svg" viewBox="0 0 100 100"><defs><style>.cls-1{fill:#8d9092;}.cls-2{fill:#fff;}.cls-3{fill:#e13c30;}</style></defs><title>Team Collaboration</title><path class="cls-1" d="M65.59,52.91v.25a1,1,0,0,0,2,0v-.28a1,1,0,0,0-2,0Zm-.5-4,.06.25a1,1,0,0,0,1.94-.48c0-.09,0-.18-.07-.27a1,1,0,0,0-1.22-.72A1,1,0,0,0,65.09,48.94Zm-2-4.51.14.2a1,1,0,0,0,1.69-1.05l-.15-.24a1,1,0,1,0-1.68,1.09Zm-3.3-3.68.19.16a1,1,0,1,0,1.28-1.54l-.21-.17a1,1,0,1,0-1.26,1.55Zm-4.28-2.46.23.09a1,1,0,0,0,.74-1.86l-.26-.1a1,1,0,0,0-.71,1.87Zm-4.84-1h.25a1,1,0,1,0,.12-2h-.28a1,1,0,0,0-1,1,1,1,0,0,0,1,1Zm-4.91.55.24-.06a1,1,0,0,0-.51-1.94l-.27.07a1,1,0,0,0,.54,1.93ZM41.27,39.9l.21-.14a1,1,0,0,0-1.09-1.67l-.23.15a1,1,0,1,0,1.11,1.66Zm-3.63,3.36.16-.19a1,1,0,0,0-.15-1.41,1,1,0,0,0-1.4.15l-.18.22a1,1,0,0,0,1.57,1.23Zm-2.4,4.32.09-.23a1,1,0,0,0-1.87-.71l-.1.26a1,1,0,0,0,.6,1.28,1,1,0,0,0,1.28-.6Zm-.92,4.85v-.25a1,1,0,0,0-2-.09c0,.1,0,.19,0,.28a1,1,0,1,0,2,.06Zm.63,4.9-.07-.23a1,1,0,0,0-1.93.53c0,.09,0,.18.08.27a1,1,0,0,0,1.24.68A1,1,0,0,0,35,57.33Zm2.13,4.46-.14-.2a1,1,0,1,0-1.66,1.11l.15.23a1,1,0,0,0,1.65-1.14Zm3.41,3.57-.19-.15a1,1,0,0,0-1.41.17,1,1,0,0,0,.17,1.4l.22.18a1,1,0,0,0,1.21-1.6Zm4.36,2.34-.24-.09a1,1,0,0,0-1.28.6,1,1,0,0,0,.6,1.28l.27.1a1,1,0,0,0,.65-1.89Zm4.86.85h-.24a1,1,0,0,0-.07,2h.28a1,1,0,1,0,0-2Zm4.9-.7-.24.07a1,1,0,0,0-.68,1.24,1,1,0,0,0,1.24.68l.27-.08a1,1,0,0,0,.66-1.26A1,1,0,0,0,54.61,67.85ZM59,65.65l-.2.14A1,1,0,1,0,60,67.44l.23-.16a1,1,0,0,0,.23-1.4A1,1,0,0,0,59,65.65Zm3.52-3.47-.15.2A1,1,0,1,0,64,63.59l.17-.22a1,1,0,0,0-1.61-1.19Zm2.27-4.39-.08.23a1,1,0,1,0,1.89.66l.09-.27a1,1,0,0,0-.64-1.26A1,1,0,0,0,64.82,57.79Z"/><path class="cls-2" d="M50,22.72c2.66,0,3.92,1.46,3.92,3.59v2.06a1.48,1.48,0,0,1-.19,2.09l-.09.07A5.78,5.78,0,0,1,52.28,33V34c.28.88,3.56,2.29,6.51,3.42a.66.66,0,0,1,.42.62v2.3a.65.65,0,0,1-.65.65H41.44a.65.65,0,0,1-.65-.65V38a.66.66,0,0,1,.42-.62c2.95-1.13,6.23-2.54,6.51-3.42V33a5.78,5.78,0,0,1-1.39-2.5l-.09-.07a1.48,1.48,0,0,1-.19-2.09V26.31c0-2.13,1.26-3.59,3.92-3.59"/><path class="cls-3" d="M50,23.72a3.14,3.14,0,0,1,2.26.71A2.47,2.47,0,0,1,53,26.31v2.06a1,1,0,0,0,.23.63.48.48,0,0,1,.12.31.53.53,0,0,1-.18.38l.64.77-.61-.8-.09.07a1,1,0,0,0-.36.53,4.76,4.76,0,0,1-1.13,2.07,1,1,0,0,0-.29.7V34a.94.94,0,0,0,0,.3,1.94,1.94,0,0,0,.47.76,6.31,6.31,0,0,0,1.19.87,42.43,42.43,0,0,0,5.44,2.43l.13-.32h-.35a.35.35,0,0,0,.22.32l.13-.32h-.35v2.3h.35v-.35a.35.35,0,0,0-.35.35h.35v-.35H41.44v.35h.35a.35.35,0,0,0-.35-.35v.35h.35V38h-.35l.13.32a.35.35,0,0,0,.22-.32h-.35l.13.32c1.49-.58,3.06-1.22,4.34-1.85a12.43,12.43,0,0,0,1.66-.94A4.53,4.53,0,0,0,48.2,35a1.94,1.94,0,0,0,.47-.76.94.94,0,0,0,0-.3V33a1,1,0,0,0-.29-.7,4.76,4.76,0,0,1-1.13-2.07,1,1,0,0,0-.36-.53l-.09-.07-.61.8.64-.77a.51.51,0,0,1-.18-.38.48.48,0,0,1,.11-.3,1,1,0,0,0,.24-.64V26.31a2.47,2.47,0,0,1,.66-1.88A3.14,3.14,0,0,1,50,23.72a1,1,0,0,0,0-2A5.09,5.09,0,0,0,46.31,23a4.46,4.46,0,0,0-1.26,3.31v2.06h1l-.77-.64a2.45,2.45,0,0,0-.58,1.58,2.51,2.51,0,0,0,.9,1.92l0,0,.1.07.6-.79-1,.27A6.84,6.84,0,0,0,47,33.74l.71-.71h-1V34h1l-1-.3.33.11-.29-.2,0,.09.33.11-.29-.2,0,0a3.25,3.25,0,0,1-.76.54,38.69,38.69,0,0,1-5.16,2.3A1.66,1.66,0,0,0,39.79,38v2.3a1.65,1.65,0,0,0,1.65,1.65H58.56a1.65,1.65,0,0,0,1.65-1.65V38a1.66,1.66,0,0,0-1.06-1.55c-1.46-.56-3-1.19-4.18-1.77a13.74,13.74,0,0,1-1.4-.79,1.88,1.88,0,0,1-.33-.27l0,0-.29.2.33-.11,0-.09-.29.2.33-.11-1,.3h1V33h-1l.71.71a6.84,6.84,0,0,0,1.64-2.94l-1-.27.6.79.1-.07,0,0a2.46,2.46,0,0,0,.32-3.49l-.77.64h1V26.31A4.46,4.46,0,0,0,53.69,23,5.09,5.09,0,0,0,50,21.72a1,1,0,0,0,0,2Z"/><path class="cls-2" d="M31.61,59.06c2.66,0,3.92,1.45,3.92,3.58V64.7a1.49,1.49,0,0,1-.19,2.09l-.1.07a5.75,5.75,0,0,1-1.38,2.51v.92c.27.88,3.56,2.28,6.51,3.42a.66.66,0,0,1,.42.61v2.3a.66.66,0,0,1-.65.66H23a.66.66,0,0,1-.64-.66v-2.3a.65.65,0,0,1,.41-.61c3-1.14,6.24-2.54,6.51-3.42v-.92a5.85,5.85,0,0,1-1.38-2.51l-.09-.07a1.49,1.49,0,0,1-.2-2.09V62.64c0-2.13,1.27-3.58,3.92-3.58"/><path class="cls-3" d="M31.61,60.06a3.07,3.07,0,0,1,2.26.71,2.45,2.45,0,0,1,.66,1.87V64.7a1,1,0,0,0,.23.64.45.45,0,0,1,.11.31.46.46,0,0,1-.17.37l.64.77-.61-.8-.09.07a1,1,0,0,0-.36.53,4.9,4.9,0,0,1-1.13,2.08,1,1,0,0,0-.29.7v.92a.79.79,0,0,0,0,.3,1.89,1.89,0,0,0,.47.75,5.9,5.9,0,0,0,1.19.87A39.83,39.83,0,0,0,40,74.64l.13-.32h-.35a.33.33,0,0,0,.22.32l.13-.32h-.35v2.3h.35v-.34a.35.35,0,0,0-.35.34h.35v-.34H23v.34h.36a.35.35,0,0,0-.36-.34v.34h.36v-2.3H23l.12.32a.34.34,0,0,0,.23-.32H23l.12.32c1.49-.57,3.07-1.21,4.35-1.84a13.6,13.6,0,0,0,1.66-1,3.92,3.92,0,0,0,.62-.51,1.8,1.8,0,0,0,.48-.75,1,1,0,0,0,0-.3v-.92a1,1,0,0,0-.28-.7,4.91,4.91,0,0,1-1.14-2.08,1.06,1.06,0,0,0-.35-.53l-.1-.07-.6.8.64-.77a.47.47,0,0,1-.18-.37.51.51,0,0,1,.11-.31,1,1,0,0,0,.23-.64V62.64a2.53,2.53,0,0,1,.66-1.87,3.09,3.09,0,0,1,2.26-.71,1,1,0,0,0,0-2,5.07,5.07,0,0,0-3.65,1.27,4.54,4.54,0,0,0-1.27,3.31V64.7h1l-.77-.64a2.49,2.49,0,0,0,.33,3.5l0,0,.1.07.6-.8-1,.27a6.87,6.87,0,0,0,1.63,2.94l.71-.7h-1v.92h1l-.95-.3.33.1-.29-.19,0,.09.33.1-.29-.19,0,0a4.86,4.86,0,0,1-.76.54,38.8,38.8,0,0,1-5.16,2.29,1.67,1.67,0,0,0-1.06,1.55v2.3A1.65,1.65,0,0,0,23,78.28H40.14a1.65,1.65,0,0,0,1.65-1.66v-2.3a1.67,1.67,0,0,0-1.06-1.55c-1.46-.56-3-1.19-4.18-1.76a11.13,11.13,0,0,1-1.4-.8,2.64,2.64,0,0,1-.34-.27l0,0-.28.19.32-.1,0-.09-.28.19.32-.1-1,.3h1v-.92h-1l.71.7a6.78,6.78,0,0,0,1.64-2.94l-1-.27.61.8.09-.07,0,0a2.47,2.47,0,0,0,.89-1.91,2.5,2.5,0,0,0-.57-1.59l-.77.64h1V62.64a4.46,4.46,0,0,0-1.27-3.31,5.06,5.06,0,0,0-3.65-1.27,1,1,0,0,0,0,2Z"/><path class="cls-2" d="M68.46,59.06c2.65,0,3.92,1.45,3.92,3.58V64.7a1.49,1.49,0,0,1-.2,2.09l-.09.07a5.85,5.85,0,0,1-1.38,2.51v.92c.27.88,3.55,2.28,6.51,3.42a.65.65,0,0,1,.41.61v2.3a.66.66,0,0,1-.64.66H59.86a.66.66,0,0,1-.65-.66v-2.3a.66.66,0,0,1,.42-.61c2.95-1.14,6.24-2.54,6.51-3.42v-.92a5.75,5.75,0,0,1-1.38-2.51l-.1-.07a1.49,1.49,0,0,1-.19-2.09V62.64c0-2.13,1.26-3.58,3.92-3.58"/><path class="cls-3" d="M68.46,60.06a3.09,3.09,0,0,1,2.26.71,2.53,2.53,0,0,1,.66,1.87V64.7a1,1,0,0,0,.23.64.51.51,0,0,1,.11.31.47.47,0,0,1-.18.37l.64.77-.6-.8-.1.07a1.06,1.06,0,0,0-.35.53A4.91,4.91,0,0,1,70,68.67a1,1,0,0,0-.28.7v.92a1,1,0,0,0,0,.3,1.8,1.8,0,0,0,.48.75,5.55,5.55,0,0,0,1.18.87,40,40,0,0,0,5.45,2.43l.12-.32h-.35a.34.34,0,0,0,.23.32l.12-.32h-.35v2.3H77v-.34a.35.35,0,0,0-.36.34H77v-.34H59.86v.34h.35a.35.35,0,0,0-.35-.34v.34h.35v-2.3h-.35l.13.32a.33.33,0,0,0,.22-.32h-.35l.13.32c1.49-.57,3.07-1.21,4.34-1.84a13.6,13.6,0,0,0,1.66-1,4.53,4.53,0,0,0,.63-.51,1.89,1.89,0,0,0,.47-.75.79.79,0,0,0,0-.3v-.92a1,1,0,0,0-.29-.7,4.9,4.9,0,0,1-1.13-2.08,1,1,0,0,0-.36-.53L65.27,66l-.61.8L65.3,66a.46.46,0,0,1-.17-.37.45.45,0,0,1,.11-.31,1,1,0,0,0,.23-.64V62.64a2.45,2.45,0,0,1,.66-1.87,3.07,3.07,0,0,1,2.26-.71,1,1,0,0,0,0-2,5.06,5.06,0,0,0-3.65,1.27,4.46,4.46,0,0,0-1.27,3.31V64.7h1l-.77-.64a2.5,2.5,0,0,0-.57,1.59,2.45,2.45,0,0,0,.9,1.91l0,0,.09.07.61-.8-1,.27a6.78,6.78,0,0,0,1.64,2.94l.71-.7h-1v.92h1l-1-.3.32.1-.28-.19,0,.09.32.1-.28-.19,0,0a4,4,0,0,1-.76.54,38.22,38.22,0,0,1-5.16,2.29,1.67,1.67,0,0,0-1.06,1.55v2.3a1.65,1.65,0,0,0,1.65,1.66H77a1.65,1.65,0,0,0,1.64-1.66v-2.3a1.67,1.67,0,0,0-1.06-1.55c-1.46-.56-3-1.19-4.17-1.76a11.36,11.36,0,0,1-1.41-.8,1.88,1.88,0,0,1-.33-.27l0,0-.29.19.33-.1,0-.09-.29.19.33-.1-1,.3h1v-.92h-1l.71.7a6.87,6.87,0,0,0,1.63-2.94l-1-.27.6.8.1-.07,0,0a2.49,2.49,0,0,0,.33-3.5l-.77.64h1V62.64a4.54,4.54,0,0,0-1.27-3.31,5.07,5.07,0,0,0-3.65-1.27,1,1,0,0,0,0,2Z"/><path class="cls-1" d="M54.85,74.54a22.94,22.94,0,0,1-9.85,0,1,1,0,0,0-1.2.76,1,1,0,0,0,.76,1.19,25,25,0,0,0,10.71,0,1,1,0,0,0-.42-2Z"/><path class="cls-1" d="M27.34,55.41a23,23,0,0,1,14.44-24.6A1,1,0,1,0,41.06,29,24.87,24.87,0,0,0,25.12,52.18a25.44,25.44,0,0,0,.24,3.51,1,1,0,0,0,2-.28Z"/><path class="cls-1" d="M74.64,55.69a25.44,25.44,0,0,0,.24-3.51A24.87,24.87,0,0,0,58.94,29a1,1,0,0,0-.72,1.86,23,23,0,0,1,14.44,24.6,1,1,0,1,0,2,.28Z"/><path class="cls-1" d="M48.92,45.67v8.62a1,1,0,1,0,2,0V45.67a1,1,0,0,0-2,0"/><path class="cls-1" d="M44.74,60.94,50,55.71,55.26,61a1,1,0,0,0,1.42-1.42l-6-6a1,1,0,0,0-1.42,0l-5.94,5.94a1,1,0,1,0,1.42,1.42Z"/></svg>