<svg id="Layer_1" data-name="Layer 1" xmlns="http://www.w3.org/2000/svg" viewBox="0 0 100 100"><defs><style>.cls-1{fill:#8d9092;}.cls-2{fill:#e13c30;}</style></defs><title>Project Details</title><path class="cls-1" d="M64,77.28H29.12a6.41,6.41,0,0,1-6.4-6.4V36a6.4,6.4,0,0,1,6.4-6.4H64a6.41,6.41,0,0,1,6.4,6.4v34.9A6.41,6.41,0,0,1,64,77.28Zm-34.9-45.7a4.39,4.39,0,0,0-4.4,4.4v34.9a4.4,4.4,0,0,0,4.4,4.4H64a4.41,4.41,0,0,0,4.41-4.4V36a4.4,4.4,0,0,0-4.4-4.4H29.12ZM70.42,36h0Z"/><path class="cls-1" d="M70.88,70.42a1,1,0,0,1,0-2,4.4,4.4,0,0,0,4.4-4.4V29.12a4.4,4.4,0,0,0-4.4-4.4H36a4.4,4.4,0,0,0-4.4,4.4,1,1,0,1,1-2,0,6.41,6.41,0,0,1,6.4-6.4h34.9a6.41,6.41,0,0,1,6.4,6.4V64A6.41,6.41,0,0,1,70.88,70.42Z"/><path class="cls-1" d="M62.06,40.41H43.77a1,1,0,0,1,0-2H62.06a1,1,0,0,1,0,2Z"/><path class="cls-1" d="M62.06,45.29H43.77a1,1,0,0,1,0-2H62.06a1,1,0,0,1,0,2Z"/><path class="cls-1" d="M52.92,50.16H43.77a1,1,0,0,1,0-2h9.15a1,1,0,0,1,0,2Z"/><path class="cls-1" d="M33.27,67.55a1,1,0,0,1-.71-.29,1,1,0,0,1,0-1.41l7-7a1,1,0,0,1,1.42,0,1,1,0,0,1,0,1.41l-7,7A1,1,0,0,1,33.27,67.55Z"/><path class="cls-1" d="M54.19,67.55a1,1,0,0,1-.7-.29,1,1,0,0,1,0-1.41l.18-.19a1,1,0,0,1,1.42,0,1,1,0,0,1,0,1.41l-.19.19A1,1,0,0,1,54.19,67.55Zm3.74-3.73a1,1,0,0,1-.71-1.71l.19-.18a1,1,0,0,1,1.41,1.41l-.19.19A1,1,0,0,1,57.93,63.82Z"/><path class="cls-1" d="M51,67.25a1,1,0,0,1-.71-.29l-7.43-7.43a1,1,0,0,1,1.41-1.41l7.43,7.42a1,1,0,0,1-.7,1.71Z"/><path class="cls-2" d="M62.65,60.88A2.92,2.92,0,1,1,65.56,58,2.91,2.91,0,0,1,62.65,60.88Zm0-3.83a.92.92,0,1,0,.91.91A.91.91,0,0,0,62.65,57.05Z"/><path class="cls-2" d="M52.54,70.72a2.91,2.91,0,1,1,2.91-2.91A2.92,2.92,0,0,1,52.54,70.72Zm0-3.82a.91.91,0,1,0,.91.91A.91.91,0,0,0,52.54,66.9Z"/><path class="cls-2" d="M31.74,70.72a2.91,2.91,0,1,1,2.92-2.91A2.92,2.92,0,0,1,31.74,70.72Zm0-3.82a.91.91,0,1,0,.92.91A.91.91,0,0,0,31.74,66.9Z"/><path class="cls-2" d="M41.86,60.88A2.92,2.92,0,1,1,44.77,58,2.91,2.91,0,0,1,41.86,60.88Zm0-3.83a.92.92,0,1,0,.91.91A.91.91,0,0,0,41.86,57.05Z"/><path class="cls-2" d="M34.63,51.94a1,1,0,0,1-1-1v-.67a8,8,0,0,1-3.29-1.54,1,1,0,0,1-.14-1.41,1,1,0,0,1,1.4-.14,5.66,5.66,0,0,0,3,1.2c1.21,0,2.23-.75,2.23-1.64,0-.24,0-1-2.49-1.67-1.3-.38-4-1.16-4-3.61a3.81,3.81,0,0,1,3.23-3.53v-.54a1,1,0,0,1,2,0v.54a4.24,4.24,0,0,1,2.63,1.65A1,1,0,0,1,38,41a1,1,0,0,1-1.39-.25,2.41,2.41,0,0,0-2-.9c-1.21,0-2.23.75-2.23,1.63,0,.47.3,1,2.51,1.68,1,.27,4,1.08,4,3.6a3.81,3.81,0,0,1-3.23,3.54v.66A1,1,0,0,1,34.63,51.94Z"/></svg>