<svg id="Layer_1" data-name="Layer 1" xmlns="http://www.w3.org/2000/svg" viewBox="0 0 100 100"><defs><style>.cls-1{fill:#e6e7e8;}.cls-2{fill:#8d9092;}.cls-3{fill:#fff;}.cls-4{fill:#e13c30;}</style></defs><title>Roof</title><polyline class="cls-1" points="65.17 44.46 34.83 44.46 22.08 63.46 52.42 63.46 65.17 44.46 77.92 63.46"/><path class="cls-2" d="M65.17,43.46H34.83a1,1,0,0,0-.83.44l-12.75,19a1,1,0,0,0-.05,1,1,1,0,0,0,.88.53H52.42a1,1,0,0,0,.83-.44L65.17,46.25,77.09,64a1,1,0,0,0,1.66-1.12L66,43.9a1,1,0,0,0-.83-.44,1,1,0,0,0-.83.44L51.88,62.46H24l11.41-17h29.8a1,1,0,0,0,0-2Z"/><rect class="cls-3" x="34.83" y="41.51" width="9.17" height="11.54"/><path class="cls-2" d="M44,53V52H35.83V42.51H43V53h1v0h1V41.51a1,1,0,0,0-.29-.71,1,1,0,0,0-.71-.29H34.83a1,1,0,0,0-.7.29,1,1,0,0,0-.3.71V53a1,1,0,0,0,.3.71,1,1,0,0,0,.7.29H44a1,1,0,0,0,1-1Z"/><rect class="cls-3" x="31.28" y="36.54" width="16.27" height="4.96"/><path class="cls-4" d="M47.55,36.54v-1H31.28a1,1,0,0,0-1,1v5a1,1,0,0,0,.29.7,1,1,0,0,0,.71.3H47.55a1,1,0,0,0,.71-.3,1,1,0,0,0,.29-.7v-5a1,1,0,0,0-1-1v1h-1v4H32.28v-3H47.55v-1h0Z"/></svg>