<svg width="25" height="26" viewBox="0 0 25 26" fill="none" xmlns="http://www.w3.org/2000/svg">
<path d="M3.94531 5.38281C6.09375 8.23438 8.82813 9.28906 12.6953 9.28906C16.5234 9.28906 19.2969 8.23438 21.4453 5.38281" stroke="#E92300" stroke-miterlimit="10"/>
<path d="M3.94531 21.0078C6.09375 18.1562 8.82813 17.1016 12.6953 17.1016C16.5234 17.1016 19.2969 18.1562 21.4453 21.0078" stroke="#E92300" stroke-miterlimit="10"/>
<path d="M12.6953 24.9141C16.8359 22.9219 18.9453 18.4297 18.9453 13.1953C18.9453 7.96094 16.8359 3.46875 12.6953 1.47656" stroke="#E92300" stroke-miterlimit="10"/>
<path d="M12.6953 24.9141C8.55469 22.9219 6.44531 18.4297 6.44531 13.1953C6.44531 7.96094 8.55469 3.46875 12.6953 1.47656" stroke="#E92300" stroke-miterlimit="10"/>
<path d="M12.6953 24.9141V23.8594V2.53125V1.47656" stroke="#E92300" stroke-miterlimit="10"/>
<path d="M0.976562 13.1953H24.4141" stroke="#E92300" stroke-miterlimit="10"/>
<path d="M12.6953 24.9141C19.1674 24.9141 24.4141 19.6674 24.4141 13.1953C24.4141 6.72323 19.1674 1.47656 12.6953 1.47656C6.22323 1.47656 0.976562 6.72323 0.976562 13.1953C0.976562 19.6674 6.22323 24.9141 12.6953 24.9141Z" stroke="#4D5057" stroke-miterlimit="10" stroke-linecap="square"/>
</svg>
